<svg xmlns="http://www.w3.org/2000/svg" viewBox="0 0 50 50">
  <defs>
    <style>
      .cls-1 {
        fill: #f90;
      }
    </style>
  </defs>
  <path id="Subtraction_18" data-name="Subtraction 18" class="cls-1" d="M42-428H8a8.009,8.009,0,0,1-8-8v-34a8.009,8.009,0,0,1,8-8H42a8.009,8.009,0,0,1,8,8v34A8.009,8.009,0,0,1,42-428ZM21.212-445.769l-4.883,1.446v7.234l4.865-1.633.017-7.048Zm-11.032,0v7.053l4.877,1.627.006-7.234-4.883-1.446Zm5.486-2.171h0l-4.492,1.407,4.5,1.206,4.544-1.206-4.551-1.407Zm11.695-8.139-4.883,1.447v7.234l4.866-1.633.016-7.049Zm-12.3,0-4.883,1.447v7.234l4.866-1.633.017-7.049Zm1.266,0v7.053l4.877,1.628.005-7.234-4.883-1.447Zm-12.3,0v7.053L8.908-447.4l.006-7.234-4.883-1.447Zm17.785-2.17h0l-4.492,1.407,4.5,1.206,4.544-1.206-4.55-1.407Zm-12.3,0h0l-4.492,1.407,4.5,1.206,4.545-1.206-4.551-1.407Zm36.291-8.139-4.883,1.447v7.234l4.865-1.633.017-7.049Zm-11.032,0v7.053l4.877,1.628.006-7.234-4.883-1.447Zm-1.265,0-4.883,1.447v7.234l4.866-1.633.017-7.049Zm-11.032,0v7.053l4.877,1.628.005-7.234-4.882-1.447Zm17.784-2.17-4.491,1.407,4.5,1.206,4.544-1.206-4.551-1.407Zm-12.3,0-4.492,1.407,4.5,1.206,4.544-1.206-4.55-1.407Z" transform="translate(0 478)"/>
</svg>
