<svg xmlns="http://www.w3.org/2000/svg" viewBox="0 0 50 50">
  <defs>
    <style>
      .cls-1 {
        fill: #563d7c;
      }
    </style>
  </defs>
  <path id="bootstrap" class="cls-1" d="M-183-48h-34a8.009,8.009,0,0,1-8-8V-90a8.009,8.009,0,0,1,8-8h34a8.009,8.009,0,0,1,8,8v34A8.009,8.009,0,0,1-183-48Zm-30-42.062v34.124h15.38a23.775,23.775,0,0,0,4.829-.463,9.5,9.5,0,0,0,3.857-1.713,9.454,9.454,0,0,0,2.422-2.684A10.111,10.111,0,0,0-185-66.243a9.117,9.117,0,0,0-1.327-5,7.69,7.69,0,0,0-3.95-3.008,8.084,8.084,0,0,0,2.607-1.944,7.66,7.66,0,0,0,1.574-5.029,8.693,8.693,0,0,0-1.559-5.215c-1.731-2.344-4.711-3.563-8.855-3.625H-213Zm15.088,28.2H-206.2v-9.1h8.393a8.6,8.6,0,0,1,3.409.586,3.676,3.676,0,0,1,2.175,3.657c0,2.091-.753,3.523-2.237,4.257A8.043,8.043,0,0,1-197.912-61.861Zm.015-14.748h-8.3v-7.528h7.436a12.816,12.816,0,0,1,4.027.54,3.07,3.07,0,0,1,1.835,3.147,3.2,3.2,0,0,1-1.388,2.993A6.833,6.833,0,0,1-197.9-76.61Z" transform="translate(225 98)"/>
</svg>
