<svg xmlns="http://www.w3.org/2000/svg" viewBox="0 0 50 50">
  <defs>
    <style>
      .cls-1 {
        fill: #0270bb;
      }
    </style>
  </defs>
  <path id="css" class="cls-1" d="M-33,105H-67a8.009,8.009,0,0,1-8-8V63a8.009,8.009,0,0,1,8-8h34a8.009,8.009,0,0,1,8,8V97A8.009,8.009,0,0,1-33,105ZM-62,85.022l.767,8.333,11.26,3.347,11.243-3.349,1.656-18.374H-49.931l13.324-5L-36,63.3H-64l.657,6.684h13.369l-12.951,5,.617,6.7h18.186l-.575,6.684-5.277,1.654-5.245-1.681-.548-3.315Z" transform="translate(75 -55)"/>
</svg>
