<svg xmlns="http://www.w3.org/2000/svg" viewBox="0 0 50 50">
  <defs>
    <style>
      .cls-1 {
        fill: #f7df1e;
      }
    </style>
  </defs>
  <path id="javascript" class="cls-1" d="M-108,105h-34a8.009,8.009,0,0,1-8-8V63a8.009,8.009,0,0,1,8-8h34a8.009,8.009,0,0,1,8,8V97A8.009,8.009,0,0,1-108,105Zm-12.222-11.445-.946,3.85a13.339,13.339,0,0,0,5.849,1.283c6.115,0,8.294-3.3,8.294-6.389,0-2.884-1.691-4.845-5.323-6.173-2.6-.975-3.822-1.581-3.822-2.931,0-.982.919-1.972,2.972-1.972a9.86,9.86,0,0,1,4.255.958l1.067-3.728a12.039,12.039,0,0,0-5.268-1.067c-4.605,0-7.822,2.516-7.822,6.119,0,2.772,1.86,4.791,5.687,6.173,2.554.87,3.459,1.623,3.459,2.877,0,1.451-1.182,2.283-3.243,2.283A11.941,11.941,0,0,1-120.222,93.555Zm-14.252.851h0L-135,98.188a11.63,11.63,0,0,0,3.4.472,7.187,7.187,0,0,0,5.312-1.771c1.325-1.312,1.969-3.327,1.969-6.158V77.7h-4.633l.054,13.049c0,2.831-.953,4.039-3.188,4.039a7.629,7.629,0,0,1-2.391-.378Z" transform="translate(150 -55)"/>
</svg>
