<svg xmlns="http://www.w3.org/2000/svg" viewBox="0 0 49.999 50">
  <defs>
    <style>
      .cls-1 {
        fill: #eb7077;
      }
    </style>
  </defs>
  <path id="materialize" class="cls-1" d="M-258-48h-34a8.009,8.009,0,0,1-8-8V-90a8.009,8.009,0,0,1,8-8h34a8.009,8.009,0,0,1,8,8v34A8.009,8.009,0,0,1-258-48ZM-291.594-62.07h0c.127.012.264.018.421.018l.154,0h.121l.192,0,.161,0h5.178l.027,0a.378.378,0,0,0,.24-.132l.034-.03a3.264,3.264,0,0,0,.727-1.2l.038-.091a26.571,26.571,0,0,0,.978-3.423c.594-2.584,1.076-5.251,1.481-7.547l.025.015.041.026c.054.4.134.806.212,1.2.05.25.1.508.145.764q.094.477.186.955l0,.025c.185.953.376,1.938.581,2.9l.024.11a36.572,36.572,0,0,0,1.28,4.8,5,5,0,0,0,.652,1.268.8.8,0,0,0,.554.353.465.465,0,0,0,.1-.011,2.4,2.4,0,0,0,.331.015h2.314l1.571,0c.637,0,1.322,0,2.007-.006a1.648,1.648,0,0,0,.653-.73,10.587,10.587,0,0,0,.745-1.947c.331-1.122.588-2.262.8-3.242.408-1.912.8-3.976,1.242-6.5a.137.137,0,0,1,.073.107q.112.6.222,1.2c.488,2.643.992,5.376,1.7,8.012l.064.213a10.438,10.438,0,0,0,.847,2.2l.033.048c.189.28.423.628.793.628a.541.541,0,0,0,.066,0,1.264,1.264,0,0,0,.265.021h3.342c.773,0,1.687,0,2.605-.011a3.9,3.9,0,0,0,1.227-1.973,10.092,10.092,0,0,0,.388-2.2c.035-.35.071-.711.125-1.064a9.02,9.02,0,0,1,.927-3.22,3.434,3.434,0,0,1,1.553-1.4,2.337,2.337,0,0,1,.241-.1,1.658,1.658,0,0,0,.333-.159c-.2-.012-.411-.019-.7-.019l-.4,0-.395,0-.286,0h-4.306a1.7,1.7,0,0,0-1.244.582,1.974,1.974,0,0,0-.3.438c-.048.084-.1.17-.151.25l-.078-.078c-.053-.459-.14-.922-.217-1.33-.325-1.774-.675-3.66-1.072-5.5-.266-1.223-.6-2.658-1.046-4.034l-.035-.094a7.093,7.093,0,0,0-.6-1.345,1.854,1.854,0,0,0-.631-.621c-.056,0-.111,0-.167,0h-3.418c-1.244,0-2.2,0-3.083.007a1.614,1.614,0,0,0-.818.89,16.19,16.19,0,0,0-.981,2.967l-.05.191c-.567,2.345-1.019,4.695-1.522,7.5-.076-.015-.082-.076-.088-.141a.42.42,0,0,0-.01-.066c-.264-1.451-.551-2.94-.854-4.427l-.013-.061a49.462,49.462,0,0,0-1.209-4.826,9.989,9.989,0,0,0-.534-1.232,1.71,1.71,0,0,0-.766-.8l-.15,0h-6.344a1,1,0,0,0-.175.013,1.433,1.433,0,0,0-.647.643,8.242,8.242,0,0,0-.626,1.491c-.342,1.046-.6,2.125-.859,3.23-.283,1.249-.56,2.584-.869,4.2-.062.343-.13.691-.2,1.028-.117.6-.238,1.218-.327,1.829l-.027.022a.777.777,0,0,1-.071.055,2.059,2.059,0,0,0-.844-.647,1.409,1.409,0,0,0-.5-.1c-.07,0-.141-.009-.211-.018h-5.644a2.707,2.707,0,0,0-.271.018l-.137.013a2.562,2.562,0,0,1,1,.518,4.541,4.541,0,0,1,.953,1.268,11.825,11.825,0,0,1,.9,2.46c.16.614.274,1.251.384,1.868a14.105,14.105,0,0,0,.843,3.222l.06.1a1.636,1.636,0,0,0,.473.569l.039.026a.3.3,0,0,0,.163.069l.027,0Z" transform="translate(300 98)"/>
</svg>
