<svg xmlns="http://www.w3.org/2000/svg" viewBox="0 0 50 50">
  <defs>
    <style>
      .cls-1 {
        fill: #589636;
      }
    </style>
  </defs>
  <path id="mongodb" class="cls-1" d="M42-200H8a8.009,8.009,0,0,1-8-8v-34a8.009,8.009,0,0,1,8-8H42a8.009,8.009,0,0,1,8,8v34A8.009,8.009,0,0,1,42-200Zm-16.34-17.14a2.689,2.689,0,0,0-1.308.445,1.378,1.378,0,0,0-.581,1.144,1.323,1.323,0,0,0,.954,1.391.06.06,0,0,1,.036.045.068.068,0,0,1-.018.055,3.779,3.779,0,0,1-.418.273l-.077.048c-.07.044-.13.081-.178.115a.123.123,0,0,0-.057.148l0,.016v.018a.865.865,0,0,0,.591.572.06.06,0,0,1,.036.045c0,.02-.01.028-.027.037a5.08,5.08,0,0,0-.836.672.7.7,0,0,0-.182.454,1.2,1.2,0,0,0,.482.9,2.017,2.017,0,0,0,1.3.382,2.933,2.933,0,0,0,1.208-.264,2,2,0,0,0,1.281-1.69,1.017,1.017,0,0,0-.681-.972,7.943,7.943,0,0,0-1.461-.181c-.043,0-.083-.006-.122-.009s-.089,0-.133-.01c-.39-.027-.472-.193-.472-.327,0-.149.171-.242.254-.264h.009l.022,0c.025,0,.065-.007.1-.007s.089-.009.127-.009a2.092,2.092,0,0,0,1.063-.409,1.478,1.478,0,0,0,.617-1.317,3.364,3.364,0,0,0-.054-.391l-.01-.019,0-.011c-.007-.021-.013-.036-.005-.052l.037-.019a1.892,1.892,0,0,0,.236.037h.046a.516.516,0,0,0,.4-.173.683.683,0,0,0,.118-.418.482.482,0,0,0-.037-.182.788.788,0,0,1-.635.236,1.667,1.667,0,0,1-.59-.091l-.053-.019a2.648,2.648,0,0,0-.946-.2Zm5.251-.018a2.725,2.725,0,0,0-1.39.409,1.978,1.978,0,0,0-.9,1.726,2,2,0,0,0,2.1,2.2,2.532,2.532,0,0,0,1.245-.391,2.107,2.107,0,0,0,.954-1.88A1.947,1.947,0,0,0,30.91-217.157Zm-16.024,0a2.725,2.725,0,0,0-1.39.409,1.978,1.978,0,0,0-.9,1.726,2,2,0,0,0,2.1,2.2,2.465,2.465,0,0,0,1.245-.391,2.107,2.107,0,0,0,.954-1.88A1.947,1.947,0,0,0,14.886-217.157Zm4.079,4.242c.4,0,.669.012.849.021.1,0,.163.007.214.007a.59.59,0,0,0,.045-.409,1.734,1.734,0,0,1-.418-.064c-.157-.035-.208-.108-.218-.309-.018-.482-.018-1.509-.018-2.19a.431.431,0,0,1,.108-.336,1.382,1.382,0,0,1,.845-.309.945.945,0,0,1,.627.209.891.891,0,0,1,.291.572c.035.3.032.849.029,1.376,0,.154,0,.309,0,.459,0,.366-.029.454-.164.5a1.739,1.739,0,0,1-.418.081.53.53,0,0,0,0,.409h.012c.111,0,.227,0,.362-.011.187-.008.4-.017.652-.017.372,0,.66.012.85.02.1,0,.173.007.223.007a.636.636,0,0,0,.027-.391,1.842,1.842,0,0,1-.59-.155.272.272,0,0,1-.073-.145c-.018-.319-.018-1.231-.018-1.835a2.135,2.135,0,0,0-.291-1.218,1.248,1.248,0,0,0-1.054-.544,2.412,2.412,0,0,0-1.381.653.1.1,0,0,1-.051.028.018.018,0,0,1-.014-.006.068.068,0,0,1-.008-.05c0-.071.009-.191.018-.307,0-.047.007-.09.009-.128a.235.235,0,0,0-.063-.191,6.019,6.019,0,0,1-1.408.363c-.11.023-.187.092-.191.17s.051.127.146.158H17.9a2.033,2.033,0,0,1,.535.236.262.262,0,0,1,.082.234v.02c.01.721.008,1.748-.018,2.3-.009.221-.068.309-.236.346l.018-.009-.086.019a2.831,2.831,0,0,1-.3.054.526.526,0,0,0,0,.409h.005c.036,0,.108,0,.208-.007C18.336-212.9,18.669-212.916,18.965-212.916Zm-8,0c.249,0,.475.007.69.019a2.246,2.246,0,0,0,.227.009.732.732,0,0,0,.055-.346h-.009a1.932,1.932,0,0,1-.527-.127.287.287,0,0,1-.163-.218c0-.093,0-.2,0-.325,0-.149.005-.318.005-.493.009-.354.009-.736.009-1.044,0-1.058-.5-1.69-1.345-1.69a2.758,2.758,0,0,0-1.427.654.065.065,0,0,1-.054.027.07.07,0,0,1-.064-.036,1.175,1.175,0,0,0-1.054-.645,2.555,2.555,0,0,0-1.381.618.129.129,0,0,1-.054.018.071.071,0,0,1-.073-.064c0-.12.01-.243.018-.336l.009-.1a.228.228,0,0,0-.045-.146,6.647,6.647,0,0,1-1.39.355c-.119.018-.173.081-.173.136s.038.1.127.127a2.081,2.081,0,0,1,.545.237.277.277,0,0,1,.1.255v.018c.01.771.008,1.781-.019,2.3-.009.226-.08.327-.263.373l-.038.01a3.069,3.069,0,0,1-.362.072.3.3,0,0,0-.028.136.38.38,0,0,0,.028.209h.006a2.144,2.144,0,0,1,.33.019c.185-.009.408-.019.727-.019.274,0,.522.01.708.019.069,0,.134,0,.19.005s.095,0,.136,0a.757.757,0,0,0,.027-.346l-.163-.027a1.576,1.576,0,0,1-.18-.03l-.029-.006a.28.28,0,0,1-.255-.282c-.009-.355-.009-1.17-.009-1.826v-.536a.3.3,0,0,1,.082-.209,1.67,1.67,0,0,1,.926-.354.856.856,0,0,1,.89.79,15.558,15.558,0,0,1,.009,2.08c-.009.2-.064.282-.218.327-.083.017-.176.036-.291.055a.518.518,0,0,0-.109.014l-.018,0a.287.287,0,0,0-.036.164.481.481,0,0,0,.027.182h.016l.131,0c.079,0,.168-.005.262-.005s.23,0,.337-.005.175,0,.236,0c.473,0,.8.01,1.09.018a.181.181,0,0,0,.036-.091.485.485,0,0,0,.01-.255l-.291-.063L8.86-213.3c-.033-.007-.063-.014-.105-.021a.265.265,0,0,1-.218-.282c-.006-.189,0-.421,0-.666,0-.134,0-.273,0-.415v-.59a4.14,4.14,0,0,0-.037-.744v-.009a.16.16,0,0,1,.037-.091,1.578,1.578,0,0,1,.926-.355.9.9,0,0,1,.927.79c.044.292.028,1.348.021,1.8,0,.1,0,.169,0,.2-.009.242-.058.319-.236.372l-.045.013a2.344,2.344,0,0,1-.3.069.9.9,0,0,0,0,.346C10.1-212.905,10.386-212.916,10.962-212.916Zm30.361-.031c.4,0,.886.013,1.313.025.318.009.593.016.764.016a4.313,4.313,0,0,0,1.69-.282,1.9,1.9,0,0,0,1.335-1.772,1.655,1.655,0,0,0-1.435-1.552c-.013,0-.021-.012-.021-.019s.008-.014.021-.018a1.421,1.421,0,0,0,.944-1.272c0-1.357-1.439-1.462-1.88-1.462-.322,0-.618,0-.9.009s-.6.009-.93.009c-.515,0-.8-.015-.948-.022l-.115,0a.831.831,0,0,0-.171.35.05.05,0,0,0,.008.04c.224.029.472.066.617.091.193.053.3.137.309.427.006.225,0,.594,0,1.105q0,.475,0,1.1c0,.813,0,1.926-.018,2.244-.037.374-.063.445-.309.508a1.68,1.68,0,0,1-.464.073.708.708,0,0,0-.146.38.034.034,0,0,0,.019.029C41.1-212.945,41.2-212.946,41.323-212.946Zm-7.47-6.346c-.048.058-.208.337-.172.4.245.026.426.062.558.088l.014,0c.274.055.41.137.436.454.014.294.012,1.065.01,1.685,0,.184,0,.355,0,.494q0,.263,0,.513c0,.657,0,1.224-.019,1.722-.027.335-.062.436-.255.508a1.42,1.42,0,0,1-.418.082c-.023,0-.052.036-.081.094a.483.483,0,0,0-.064.315h.01l1.008.012h.01c.593.008,1.154.015,1.543.015a4.237,4.237,0,0,0,2.606-.736,3.046,3.046,0,0,0,1.254-2.616,2.93,2.93,0,0,0-1.008-2.326,3.371,3.371,0,0,0-2.217-.708c-.626,0-1.018.009-1.363.017-.247.006-.458.01-.7.01-.182,0-.473-.009-.73-.016C34.087-219.287,33.926-219.292,33.853-219.292Zm-9.037-21.235a1.27,1.27,0,0,1-.452,1.042,11.688,11.688,0,0,0-4.153,8.772c-.257,5.2,3.819,8.322,4.285,8.661a7.424,7.424,0,0,1,.348,2.442l.562.193a.084.084,0,0,1,0-.024,9.994,9.994,0,0,1,.058-2.2,1.373,1.373,0,0,1,.291-.579,7.176,7.176,0,0,0,.683-.558l.027-.014v-.01a10.108,10.108,0,0,0,3.015-9.352,12.68,12.68,0,0,0-3.508-6.518,3.036,3.036,0,0,1-.508-.6,7.035,7.035,0,0,1-.617-1.206v.035a.469.469,0,0,0-.029-.091Zm.962,29.637a1.6,1.6,0,0,1-1.09-.336.8.8,0,0,1-.319-.654c0-.281.171-.516.554-.763a.791.791,0,0,1,.391-.1,3.648,3.648,0,0,1,1.272.164.7.7,0,0,1,.526.7C27.113-211.387,26.7-210.89,25.778-210.89Zm5.2-2.371c-.856,0-1.454-.833-1.454-2.026a1.4,1.4,0,0,1,.536-1.29.838.838,0,0,1,.49-.136c.869,0,1.453.792,1.453,1.971a1.618,1.618,0,0,1-.4,1.263A.919.919,0,0,1,30.983-213.26Zm-16.024,0c-.856,0-1.454-.833-1.454-2.026a1.4,1.4,0,0,1,.535-1.29.842.842,0,0,1,.49-.136c.869,0,1.454.792,1.454,1.971a1.619,1.619,0,0,1-.4,1.263A.923.923,0,0,1,14.959-213.26Zm29.049-.136a2.11,2.11,0,0,1-.79-.11.683.683,0,0,1-.3-.491c-.022-.324-.02-1.069-.019-1.668,0-.144,0-.281,0-.4,0-.03.045-.048.064-.054a2.09,2.09,0,0,1,.285-.013l.193,0h.048c1.2,0,1.862.5,1.862,1.4A1.246,1.246,0,0,1,44.009-213.4Zm-7.067,0a1.784,1.784,0,0,1-1.027-.245.563.563,0,0,1-.2-.436c-.019-.137-.019-1.308-.019-2.163,0-.829,0-2.216.019-2.4a.269.269,0,0,1,.09-.146,1.38,1.38,0,0,1,.509-.063,3.181,3.181,0,0,1,1.707.4,2.593,2.593,0,0,1,1.19,2.353,2.767,2.767,0,0,1-.817,2.18A2.007,2.007,0,0,1,36.942-213.4Zm-11.336-1.135c-.744,0-1.008-.685-1.008-1.272s.3-.954.781-.954c.62,0,.99.452.99,1.208a1.2,1.2,0,0,1-.291.836A.7.7,0,0,1,25.605-214.532ZM43.7-216.576c-.292,0-.614-.009-.744-.018-.028,0-.055-.038-.055-.055,0-.644.009-1.606.018-1.98,0-.053.045-.155.091-.164a1.541,1.541,0,0,1,.273-.023.8.8,0,0,1,.109.005c1.019,0,1.535.409,1.535,1.217a.959.959,0,0,1-.482.909A1.945,1.945,0,0,1,43.7-216.576Z" transform="translate(0 250)"/>
</svg>
