<svg xmlns="http://www.w3.org/2000/svg" viewBox="0 0 50 50">
  <defs>
    <style>
      .cls-1 {
        fill: #00758f;
      }
    </style>
  </defs>
  <path id="mysql" class="cls-1" d="M-33-200H-67a8.009,8.009,0,0,1-8-8v-34a8.009,8.009,0,0,1,8-8h34a8.009,8.009,0,0,1,8,8v34A8.009,8.009,0,0,1-33-200Zm-26.985-17.033v.936h4.346c.749,0,2.166-.307,2.166-1.467v-4.891h-1.369v3.564h-2.992c-.529-.02-.8-.213-.8-.573v-2.977H-60c.022.022.008,2.984-.014,3.075a1.109,1.109,0,0,0,.573.886,2.99,2.99,0,0,0,1.663.414h2.921v.349c0,.01,0,.022,0,.034.006.167.021.559-.784.65h-4.346Zm19.315-1.021h0l1.09.992H-38l-1.341-1.23a1.186,1.186,0,0,0,.8-1.272v-3.256c0-.83-.562-1.314-1.719-1.481a1.977,1.977,0,0,0-.406-.028h-2.614c-.056,0-.123.007-.189.014s-.133.014-.189.014c-1.143.137-1.747.65-1.747,1.481v3.256c0,.757.41,1.2,1.37,1.481a3.317,3.317,0,0,0,.8.1h1.467l1.1-.07Zm-28.622-5.39,2.151,4.72a1.161,1.161,0,0,0,1.272.783,1.168,1.168,0,0,0,1.258-.783l2.124-4.724v5.423h1.37v-5.422a.842.842,0,0,0-.657-.923,2.783,2.783,0,0,0-.786-.127,1.286,1.286,0,0,0-1.269.784l-2.1,4.668-2.027-4.668a1.271,1.271,0,0,0-1.259-.786,2.822,2.822,0,0,0-.8.129.857.857,0,0,0-.643.923l-.014,5.423h1.37v-5.418Zm16.882,4.525v.894h3.983a3.065,3.065,0,0,0,1.273-.265,1.237,1.237,0,0,0,.867-1.132v-1.02c0-.4-.334-.754-.965-1.021a3.825,3.825,0,0,0-1.174-.2h-1.65c-.563,0-.822-.158-.895-.545v-.811c.069-.273.2-.348.713-.4h4.026v-.923h-3.844a3.419,3.419,0,0,0-1.1.112c-.823.274-1.174.684-1.174,1.37v.8c0,.655.747,1.166,1.859,1.273h1.957c.426.042.616.112.755.279a.306.306,0,0,1,.1.266v.8a.531.531,0,0,1-.2.336.87.87,0,0,1-.587.2H-52.41Zm14.689-.685c0,.945.715,1.467,2.125,1.551a1.92,1.92,0,0,1,.2.014,1.92,1.92,0,0,0,.2.014H-31.6v-.922h-3.606c-.795,0-1.1-.192-1.1-.685v-4.738h-1.4v4.766Zm7.046-6.28a5.051,5.051,0,0,0-1.777.284,1.213,1.213,0,0,1-.139.045c-.139.039-.271.076-.281.222a.474.474,0,0,1,.108.194.883.883,0,0,0,.06.14,2.393,2.393,0,0,0,.545.643c.2.159.429.323.685.489a5.026,5.026,0,0,0,.667.348,5.465,5.465,0,0,1,.6.309,5.311,5.311,0,0,1,.509.357c.062.047.12.091.176.132.034.029.065.061.1.091a.94.94,0,0,0,.239.188v-.028a.848.848,0,0,1-.083-.166.842.842,0,0,0-.085-.169l-.095-.092c-.071-.068-.145-.138-.213-.215a4.853,4.853,0,0,0-1.09-1.063c-.09-.063-.21-.132-.338-.206-.349-.2-.782-.447-.864-.745l-.028-.028a4.52,4.52,0,0,0,.726-.167,3,3,0,0,1,.528-.085,3.448,3.448,0,0,0,.534-.083c.1-.025.2-.055.295-.084.067-.02.132-.04.195-.057v-.1a2.933,2.933,0,0,1-.256-.307,2.347,2.347,0,0,0-.262-.308,13.117,13.117,0,0,0-1.747-1.3,5.049,5.049,0,0,0-.684-.334c-.144-.062-.279-.12-.406-.183a.853.853,0,0,0-.169-.071.5.5,0,0,1-.237-.126,2.127,2.127,0,0,1-.282-.509c-.045-.1-.087-.2-.137-.288-.251-.479-.485-1-.712-1.5l-.007-.016-.147-.326c-.076-.157-.14-.318-.2-.474a4.38,4.38,0,0,0-.343-.728,10.621,10.621,0,0,0-4.081-3.942,5.361,5.361,0,0,0-1.276-.4l-.066-.015c-.173,0-.344-.012-.509-.024-.091-.006-.182-.013-.274-.018a1.165,1.165,0,0,1-.291-.216,1.6,1.6,0,0,0-.2-.161,3.886,3.886,0,0,0-1.756-.656.837.837,0,0,0-.844.543c-.236.576.216,1.145.515,1.521.056.071.1.131.142.184a4.822,4.822,0,0,1,.545.783c.034.1.059.191.082.283s.05.191.085.29l.035.1c.155.441.315.9.511,1.314l0,.005a4.158,4.158,0,0,0,.4.652.931.931,0,0,0,.092.088.411.411,0,0,1,.173.262,1.619,1.619,0,0,0-.185.553c-.016.076-.033.155-.052.229a4.586,4.586,0,0,0,.308,3.536c.1.166.423.671.855.671a.605.605,0,0,0,.248-.055c.353-.146.391-.515.432-.905.014-.139.029-.282.058-.423a.655.655,0,0,0,.015-.113.237.237,0,0,1,.055-.166v.028c.069.137.138.284.206.425s.143.3.214.441a5.965,5.965,0,0,0,1.369,1.411,2.276,2.276,0,0,1,.275.255,1.426,1.426,0,0,0,.508.388v-.029h-.028a.616.616,0,0,0-.148-.136.784.784,0,0,1-.09-.073,3.975,3.975,0,0,1-.545-.644,13.986,13.986,0,0,1-1.174-1.914c-.146-.294-.273-.6-.395-.893l-.053-.127a.656.656,0,0,1-.063-.167.381.381,0,0,0-.1-.21c-.054.076-.116.147-.175.216a1.333,1.333,0,0,0-.314.5,4.081,4.081,0,0,0-.238,1.2c-.013.127-.026.256-.042.383h-.016c-.015,0-.016,0-.019.011a.116.116,0,0,1-.006.016c-.3-.089-.422-.356-.548-.639l-.039-.088a4.582,4.582,0,0,1-.1-2.809c.014-.04.037-.1.065-.17.117-.3.313-.793.2-.962a.8.8,0,0,0-.235-.3,1.363,1.363,0,0,1-.17-.177,3.571,3.571,0,0,1-.378-.685,7.391,7.391,0,0,1-.312-.886,6.915,6.915,0,0,0-.345-.959,3.342,3.342,0,0,0-.45-.708l-.067-.089c-.068-.1-.141-.188-.211-.275a3,3,0,0,1-.376-.55c-.037-.1-.115-.3-.042-.419a.175.175,0,0,1,.134-.138l.006,0a.246.246,0,0,1,.155-.042,1.335,1.335,0,0,1,.5.14,5.881,5.881,0,0,1,1.034.517,1.6,1.6,0,0,1,.147.122.891.891,0,0,0,.343.227h.21a3.188,3.188,0,0,0,.492.049,2.717,2.717,0,0,1,.543.062,7.236,7.236,0,0,1,1.509.727,9.348,9.348,0,0,1,3.285,3.605,7.558,7.558,0,0,1,.279.713c.116.286.256.577.391.858.109.228.222.463.322.694l.022.051A5.732,5.732,0,0,0-34-227.977a1.932,1.932,0,0,0,.8.355c.109.032.211.063.291.092.11.052.255.1.395.153s.246.087.332.127c.251.151.512.332.765.508l.3.2a1.844,1.844,0,0,0,.3.241c.189.135.4.288.428.416C-30.484-225.883-30.574-225.885-30.674-225.885Zm-11,6.965h-1.257c-.552,0-.894-.209-.965-.588a.274.274,0,0,0-.014-.069.278.278,0,0,1-.014-.07v-3.145c0-.416.4-.685,1.021-.685h2.054c.532,0,.893.214.965.573v3.4a.658.658,0,0,1-.349.447l-.993-.895h-1.58l1.13,1.033Z" transform="translate(75 250)"/>
</svg>
