<svg xmlns="http://www.w3.org/2000/svg" viewBox="0 0 49.999 50">
  <defs>
    <style>
      .cls-1 {
        fill: #8892be;
      }
    </style>
  </defs>
  <path id="Subtraction_19" data-name="Subtraction 19" class="cls-1" d="M-33-428H-67a8.009,8.009,0,0,1-8-8v-34a8.009,8.009,0,0,1,8-8h34a8.009,8.009,0,0,1,8,8v34A8.009,8.009,0,0,1-33-428Zm-17-35.822c-11.672,0-21.167,4.995-21.167,11.134s9.5,11.136,21.167,11.136,21.168-5,21.168-11.136S-38.328-463.822-50-463.822Zm6.677,17.372h-2.431l2.17-11.159h4.673a3.9,3.9,0,0,1,3.076,1.108,3.478,3.478,0,0,1,.584,3.089,4.9,4.9,0,0,1-.538,1.494,5.054,5.054,0,0,1-.99,1.24,4.341,4.341,0,0,1-1.617.972,7.588,7.588,0,0,1-2.268.289h-2.082l-.577,2.966Zm1.831-9.4h0l-.91,4.671h1.478a3.59,3.59,0,0,0,2.192-.553,2.975,2.975,0,0,0,.972-1.85,2.032,2.032,0,0,0-.221-1.756,2.5,2.5,0,0,0-1.847-.511h-1.664Zm-20.8,9.4h-2.431l2.169-11.159h4.675A3.9,3.9,0,0,1-54.8-456.5a3.485,3.485,0,0,1,.581,3.091,4.989,4.989,0,0,1-.537,1.494,5.078,5.078,0,0,1-.99,1.24,4.317,4.317,0,0,1-1.617.972,7.585,7.585,0,0,1-2.267.289h-2.083l-.576,2.965Zm1.827-9.4h0l-.908,4.671H-59.9a3.6,3.6,0,0,0,2.191-.553,2.956,2.956,0,0,0,.97-1.85,2.03,2.03,0,0,0-.219-1.756,2.5,2.5,0,0,0-1.847-.511h-1.665Zm8.273,6.435h-2.413l2.17-11.161h2.411l-.577,2.967h2.148a4.206,4.206,0,0,1,2.8.707,2.352,2.352,0,0,1,.464,2.291l-1.009,5.193h-2.45l.958-4.937a1.334,1.334,0,0,0-.12-1.148,1.7,1.7,0,0,0-1.212-.307h-1.926l-1.242,6.394Z" transform="translate(75 478)"/>
</svg>
