<svg xmlns="http://www.w3.org/2000/svg" viewBox="0 0 50 50">
  <defs>
    <style>
      .cls-1 {
        fill: #8ed6fb;
      }
    </style>
  </defs>
  <path id="Subtraction_21" data-name="Subtraction 21" class="cls-1" d="M42-506H8a8.009,8.009,0,0,1-8-8v-34a8.009,8.009,0,0,1,8-8H42a8.009,8.009,0,0,1,8,8v34A8.009,8.009,0,0,1,42-506Zm-6.325-17.937-10.311,5.648v7.259l16.549-9.32-6.238-3.586Zm-22.075,0L7.362-520.35l16.549,9.32v-7.259L13.6-523.937h0Zm21.937-12.606-10.173,5.848v10.754l10.173-5.568v-11.034Zm-21.8,0v11.034l10.173,5.568v-10.754l-10.173-5.848Zm-7.509-4.32v19.492l6.056-3.484v-12.528l-6.056-3.48Zm36.815,0-6.056,3.48v12.528l6.056,3.484v-19.492Zm-18.406-2.55L14.428-537.82l10.211,5.872,10.212-5.872-10.212-5.593h0Zm.724-8.272v7.019l10.874,5.954.083.048,6.016-3.461-16.973-9.561Zm-1.453,0L6.939-542.124l6.016,3.461.084-.048,10.873-5.954v-7.019Z" transform="translate(0 556)"/>
</svg>
