<svg xmlns="http://www.w3.org/2000/svg" viewBox="0 0 50 50">
  <defs>
    <style>
      .cls-1 {
        fill: #21759b;
      }
    </style>
  </defs>
  <path id="Subtraction_20" data-name="Subtraction 20" class="cls-1" d="M-33-506H-67a8.009,8.009,0,0,1-8-8v-34a8.009,8.009,0,0,1,8-8h34a8.009,8.009,0,0,1,8,8v34A8.009,8.009,0,0,1-33-506Zm-17-44.6A19.621,19.621,0,0,0-69.6-531,19.621,19.621,0,0,0-50-511.4,19.621,19.621,0,0,0-30.4-531,19.621,19.621,0,0,0-50-550.6Zm0,37.214h0v0a17.671,17.671,0,0,1-4.978-.714l5.287-15.362,5.414,14.841a2.683,2.683,0,0,0,.128.243A17.636,17.636,0,0,1-50-513.384Zm-7.693-1.759h0a17.68,17.68,0,0,1-7.163-6.383A17.569,17.569,0,0,1-67.621-531a17.451,17.451,0,0,1,1.527-7.169l8.4,23.024Zm16.551-.627v0l5.381-15.558a16.67,16.67,0,0,0,1.339-6.311,13.721,13.721,0,0,0-.114-1.81A17.671,17.671,0,0,1-32.383-531a17.6,17.6,0,0,1-2.415,8.907,17.721,17.721,0,0,1-6.341,6.321Zm-13.3-4.5v0l-6.416-19.056c1.04-.048,2.006-.162,2.015-.163a.728.728,0,0,0,.662-.788.7.7,0,0,0-.713-.677l-.05,0h-.007c-.3.023-2.953.225-4.691.225-.286,0-.619-.01-.973-.02l-.154,0A17.842,17.842,0,0,1-50-548.614a17.565,17.565,0,0,1,11.9,4.627l-.065-.006c-.054,0-.108-.01-.165-.01a3.05,3.05,0,0,0-2.959,3.127,7.411,7.411,0,0,0,1.526,3.8l.205.332a9.282,9.282,0,0,1,1.454,4.862,19.494,19.494,0,0,1-1.231,5.333l-.11.349-1.756,5.855-6.361-18.939c1.046-.05,2-.171,2.005-.172a.727.727,0,0,0,.659-.788.7.7,0,0,0-.718-.681h-.05c-.029,0-2.9.221-4.7.221-1.708,0-4.626-.242-4.655-.245h-.048a.725.725,0,0,0-.734.735.661.661,0,0,0,.659.711c.009,0,.9.1,1.837.147l2.744,7.521-3.87,11.559Z" transform="translate(75 556)"/>
</svg>
