<svg xmlns="http://www.w3.org/2000/svg" viewBox="0 0 50 50">
  <defs>
    <style>
      .cls-1 {
        fill: #2c2e31;
      }
    </style>
  </defs>
  <path id="express" class="cls-1" d="M-33-48H-67a8.009,8.009,0,0,1-8-8V-90a8.009,8.009,0,0,1,8-8h34a8.009,8.009,0,0,1,8,8v34A8.009,8.009,0,0,1-33-48ZM-58.84-83.449h0a9,9,0,0,0-8.52,6.694c-.2.693-.324,1.418-.449,2.118-.058.326-.117.662-.183.992,0,.579,0,1.167-.008,1.746.021.105.044.21.067.315.051.233.1.472.134.71A9.832,9.832,0,0,0-65.335-65.1a8.945,8.945,0,0,0,6.44,2.55A9.083,9.083,0,0,0-54.383-63.7,8.115,8.115,0,0,0-50.5-69.63a2.506,2.506,0,0,0-.709-.128c-.524,0-.839.3-1.054,1.007a6.022,6.022,0,0,1-3.868,4.306,9.389,9.389,0,0,1-2.983.515A6.75,6.75,0,0,1-64.1-65.988a9.046,9.046,0,0,1-2.231-6.72h16.023c.165-4.143-.918-6.985-3.408-8.945a8.221,8.221,0,0,0-5.119-1.794Zm10.8.5a4.865,4.865,0,0,0-.922.1l7.2,9.369L-49.5-63.1a3.117,3.117,0,0,0,.81.12A2.23,2.23,0,0,0-46.8-64.16c1.311-1.869,2.65-3.649,4.068-5.534.645-.858,1.311-1.742,1.968-2.629l.149.195c.222.291.414.542.6.8.477.653.968,1.313,1.442,1.952,1.252,1.686,2.545,3.427,3.727,5.2a2.244,2.244,0,0,0,1.952,1.2A3.628,3.628,0,0,0-32-63.106q-.947-1.261-1.88-2.509L-34-65.771c-1.789-2.389-3.478-4.644-5.219-6.935a1.007,1.007,0,0,1-.026-1.49c.967-1.2,1.91-2.449,2.823-3.658q.478-.632.956-1.263c.685-.9,1.382-1.828,2.055-2.722l.008-.011.727-.965a3.037,3.037,0,0,0-.85-.135,2.176,2.176,0,0,0-1.829,1.129c-1.247,1.754-2.522,3.428-3.872,5.2l0,0c-.5.653-1.012,1.329-1.523,2.006-.54-.723-1.088-1.444-1.617-2.141l0,0c-1.316-1.731-2.559-3.367-3.741-5.095A2.158,2.158,0,0,0-48.04-82.945Zm-3.785,8.872H-66.306a8.622,8.622,0,0,1,2.228-5.73,7.115,7.115,0,0,1,5.292-2.186h.07a6.459,6.459,0,0,1,4.882,2.24,8.878,8.878,0,0,1,2.009,5.676Z" transform="translate(75 98)"/>
</svg>
