<svg xmlns="http://www.w3.org/2000/svg" viewBox="0 0 50 50">
  <defs>
    <style>
      .cls-1 {
        fill: #2c2e31;
      }
    </style>
  </defs>
  <path id="html" class="cls-1" d="M42,105H8a8.009,8.009,0,0,1-8-8V63a8.009,8.009,0,0,1,8-8H42a8.009,8.009,0,0,1,8,8V97A8.009,8.009,0,0,1,42,105ZM12.711,83.884h0l.7,8.851,11.525,3.185h.127v-.033l11.429-3.152,1.594-17.319h-20.5l-.476-5.764H38.562l.509-5.57H10.929l1.5,17H31.909l-.7,7.258-6.271,1.688L18.7,88.341l-.414-4.458H12.711Z" transform="translate(0 -55)"/>
</svg>
