<svg xmlns="http://www.w3.org/2000/svg" viewBox="0 0 50 49.999">
  <defs>
    <style>
      .cls-1 {
        fill: #2c2e31;
      }
    </style>
  </defs>
  <path id="jquery" class="cls-1" d="M42-350H8a8.009,8.009,0,0,1-8-8v-34a8.009,8.009,0,0,1,8-8H42a8.009,8.009,0,0,1,8,8v34A8.009,8.009,0,0,1,42-350ZM11.749-387.339,9.285-384.2c-2.934,4.22-3.069,9.982-.36,15.412.023.046.047.091.072.138.036.068.074.138.108.211.017.04.037.077.056.113s.039.073.056.112c.011.022.022.042.034.061s.023.039.034.062c.022.038.04.073.059.108s.041.076.064.117l.026.044c.069.118.14.239.211.35.045.078.091.147.135.213.084.126.169.263.251.4l.019.031c.02.034.043.071.067.107l.046.073c.089.138.182.268.281.405l.112.157.012.012c.011.016.021.029.032.043s.024.03.035.047c.112.157.234.313.36.473l.067.084.068.085c.057.068.113.14.163.2s.107.135.163.2a.782.782,0,0,1,.062.073.784.784,0,0,0,.062.073c.1.123.2.237.31.358l.151.17.012.012.023.023c.1.112.2.216.3.327l.159.168a.951.951,0,0,0,.1.1l.048.045.182.183,0,0,.185.185a.977.977,0,0,1,.081.074,1.012,1.012,0,0,0,.077.071l.034.032c.155.145.315.293.473.43h.011a.31.31,0,0,1,.046.04.312.312,0,0,0,.044.038l.216.184.015.013.231.2.07.057.121.1c.059.048.12.1.181.143s.138.108.2.16c.035.029.071.056.105.082s.065.049.1.075c.072.05.143.1.212.156s.143.109.216.159a1.376,1.376,0,0,0,.157.112.15.15,0,0,0,.022.016.137.137,0,0,1,.023.018c.131.1.275.187.414.273l.013.008a1.067,1.067,0,0,0,.088.061,1.026,1.026,0,0,1,.092.064c.213.134.44.271.66.4.033.02.065.037.1.055l.087.048c.163.087.32.177.5.282l.27.135c.076.034.148.073.218.111.044.024.087.047.13.069l.016.007a.208.208,0,0,1,.064.038l.073.034.073.034c.206.1.39.188.563.258l.058.026c.022.009.042.018.066.03.19.09.409.18.653.269l.069.03c.03.013.057.026.089.038.186.073.4.155.618.225a.157.157,0,0,0,.04.012.168.168,0,0,1,.038.011c.239.084.476.162.687.225.027.006.054.014.081.022s.059.018.088.023l.048.016a4.676,4.676,0,0,0,.661.186,25.041,25.041,0,0,0,4.475.425,16.48,16.48,0,0,0,12.141-4.842,15.5,15.5,0,0,0,3.273-4.842c-2.625,3.419-6.865,5.3-11.938,5.3a21.8,21.8,0,0,1-4.824-.554c-.234-.055-.473-.123-.709-.2a.97.97,0,0,1-.131-.039l-.049-.017c-.21-.063-.422-.137-.627-.208l-.048-.017-.019-.007a.563.563,0,0,1-.071-.028c-.081-.031-.162-.061-.243-.09-.123-.045-.238-.087-.353-.135l-.082-.033-.087-.035-.33-.137-.008,0-.315-.13c-.019-.009-.038-.017-.056-.024a.347.347,0,0,1-.068-.032c-.119-.052-.235-.108-.359-.167l-.193-.092a1.122,1.122,0,0,1-.157-.078l-.136-.07c-.1-.05-.194-.1-.291-.145l-.14-.073-.14-.073c-.188-.1-.344-.184-.507-.282-.027-.016-.055-.03-.081-.043s-.058-.029-.087-.047c-.113-.068-.223-.135-.333-.2s-.219-.135-.331-.2c-.033-.02-.071-.043-.107-.066l-.073-.046c-.159-.1-.316-.2-.472-.315a.757.757,0,0,1-.074-.052.487.487,0,0,0-.072-.049c-.143-.1-.283-.207-.438-.327-.056-.038-.113-.083-.163-.123l-.029-.023-.028-.021c-.123-.093-.251-.189-.377-.294l-.076-.062-.1-.084c-.156-.125-.311-.258-.461-.387l-.034-.029a.111.111,0,0,1-.027-.022.1.1,0,0,0-.028-.023c-.09-.079-.177-.158-.265-.236s-.175-.158-.265-.236a1.8,1.8,0,0,1-.146-.135l-.127-.124c-.084-.081-.17-.165-.245-.248l-.073-.073-.073-.073c-.154-.154-.314-.325-.462-.495l-.023-.023c-.079-.09-.157-.177-.236-.264s-.158-.175-.237-.265a.77.77,0,0,1-.062-.073.773.773,0,0,0-.062-.073c-.056-.068-.113-.138-.169-.208s-.112-.141-.169-.208a.813.813,0,0,1-.078-.1c-.015-.021-.03-.041-.046-.061-.067-.083-.131-.17-.193-.255s-.131-.177-.2-.263a18.086,18.086,0,0,1-3.351-8.173,14.431,14.431,0,0,1,1.382-8.645Zm9.337-3.4-1.9,2.666A11.083,11.083,0,0,0,18.8-376.81a14.3,14.3,0,0,0,1.023,1.7l.144.205a7.551,7.551,0,0,0,1.037,1.28l.037.039c.155.165.314.335.481.5l.067.068.068.067c.108.108.218.209.335.315.064.059.129.119.194.18l.022.023c.22.2.423.361.618.506.021.016.043.035.064.053s.048.042.071.059l.323.238.318.234a.014.014,0,0,1,.011.006.015.015,0,0,0,.012.006l.155.1.137.089a.906.906,0,0,0,.135.09c.16.1.316.2.472.292l0,0a.232.232,0,0,1,.063.042c.127.075.267.15.4.223l.026.014.07.038.075.04.152.082.14.075a.057.057,0,0,0,.023.012.055.055,0,0,1,.022.011c.139.07.275.133.42.2l.01,0,.189.088a.711.711,0,0,0,.067.028.732.732,0,0,1,.068.028l.506.2.1.037c.039.015.079.03.115.042.143.052.309.111.461.158.066.022.135.045.214.068s.13.041.194.063a2.713,2.713,0,0,0,.481.128,19.9,19.9,0,0,0,3.219.277,11.955,11.955,0,0,0,9.18-3.733A10.832,10.832,0,0,0,43-376.36a9.95,9.95,0,0,1-3.779,3.224,11.72,11.72,0,0,1-5.16,1.163,13.751,13.751,0,0,1-3.447-.45c-.225-.056-.453-.124-.674-.19l-.2-.068-.162-.055c-.1-.034-.208-.07-.311-.114-.034-.011-.07-.025-.107-.039s-.073-.028-.107-.039l-.253-.1-.253-.1a.719.719,0,0,0-.067-.028.717.717,0,0,1-.068-.028c-.207-.087-.4-.184-.618-.292-.106-.047-.218-.1-.315-.158a1.462,1.462,0,0,0-.18-.09c-.1-.051-.2-.107-.3-.167l-.1-.058a.419.419,0,0,0-.04-.023.2.2,0,0,1-.05-.033c-.146-.083-.295-.179-.438-.271l-.034-.022c-.022-.017-.047-.034-.072-.05s-.051-.034-.074-.052l-.148-.1-.156-.1c-.151-.1-.294-.208-.432-.314-.07-.054-.139-.107-.209-.158a.73.73,0,0,0-.1-.08l-.045-.032a14.366,14.366,0,0,1-4.86-6.929,10.653,10.653,0,0,1,.844-8.617h0Zm7.448-1.62L27.5-390.951a6.889,6.889,0,0,0-.552,6.694,9.4,9.4,0,0,0,5.411,5.051l.151.052.142.049.009,0a.618.618,0,0,1,.126.043c.162.054.3.095.427.124a11.431,11.431,0,0,0,2.152.219,6.975,6.975,0,0,0,6.483-3.949c.078-.139.14-.249.19-.321a5.5,5.5,0,0,1-4.8,2.333,11.011,11.011,0,0,1-2.593-.34,5.736,5.736,0,0,1-.581-.172l-.006,0-.19-.062a8.2,8.2,0,0,1-.923-.382,9.249,9.249,0,0,1-1.62-.99,9.362,9.362,0,0,1-3.179-4.421A6.593,6.593,0,0,1,28.534-392.357Z" transform="translate(0 400)"/>
</svg>
