<svg xmlns="http://www.w3.org/2000/svg" viewBox="0 0 50 50">
  <defs>
    <style>
      .cls-1 {
        fill: #2c2e31;
      }
    </style>
  </defs>
  <path id="mongodb" class="cls-1" d="M42-200H8a8.009,8.009,0,0,1-8-8v-34a8.009,8.009,0,0,1,8-8H42a8.009,8.009,0,0,1,8,8v34A8.009,8.009,0,0,1,42-200ZM28.6-224.661a2.181,2.181,0,0,0-1.068.364,1.127,1.127,0,0,0-.475.934,1.081,1.081,0,0,0,.779,1.136.05.05,0,0,1,.03.037.052.052,0,0,1-.015.044,3.046,3.046,0,0,1-.341.223l-.075.047c-.054.034-.1.061-.133.086a.1.1,0,0,0-.047.123l0,.011v.014a.706.706,0,0,0,.482.468.047.047,0,0,1,.03.037c0,.014-.006.022-.022.03a4.179,4.179,0,0,0-.683.549.572.572,0,0,0-.148.371.981.981,0,0,0,.393.734,1.642,1.642,0,0,0,1.061.312,2.4,2.4,0,0,0,.987-.216,1.632,1.632,0,0,0,1.046-1.38.83.83,0,0,0-.556-.794,6.468,6.468,0,0,0-1.191-.148l-.1-.007c-.038,0-.073,0-.11-.008-.319-.022-.386-.157-.386-.266s.143-.2.208-.215h.007l.018,0a.742.742,0,0,1,.079-.006c.045,0,.08-.007.1-.007a1.709,1.709,0,0,0,.868-.334,1.206,1.206,0,0,0,.5-1.076,2.626,2.626,0,0,0-.045-.319l-.007-.014,0-.009c-.006-.018-.01-.03,0-.043l.03-.015a1.544,1.544,0,0,0,.193.03h.037a.423.423,0,0,0,.327-.14.552.552,0,0,0,.1-.341.387.387,0,0,0-.03-.148.644.644,0,0,1-.519.193,1.383,1.383,0,0,1-.482-.074L29.4-224.5a2.16,2.16,0,0,0-.779-.165Zm-21.659-6.2h0a.687.687,0,0,1-.245.563,6.338,6.338,0,0,0-2.248,4.749c0,.077-.006.157-.006.243a5.813,5.813,0,0,0,2.326,4.444,3.8,3.8,0,0,1,.189,1.264v.059l.3.1a.221.221,0,0,1,0-.037c0-.081-.017-.3-.017-.529a3.033,3.033,0,0,1,.049-.636.735.735,0,0,1,.156-.312,3.821,3.821,0,0,0,.371-.3l.015-.007a.013.013,0,0,0,0-.006,5.349,5.349,0,0,0,1.727-3.973,6.469,6.469,0,0,0-.095-1.089,6.864,6.864,0,0,0-1.9-3.528,1.644,1.644,0,0,1-.275-.323,3.752,3.752,0,0,1-.334-.652v.02A.2.2,0,0,0,6.939-230.857Zm25.948,6.18a2.228,2.228,0,0,0-1.135.334,1.617,1.617,0,0,0-.735,1.41,1.636,1.636,0,0,0,1.714,1.8,2.06,2.06,0,0,0,1.016-.32,1.721,1.721,0,0,0,.779-1.535A1.591,1.591,0,0,0,32.887-224.677Zm-13.089,0a2.234,2.234,0,0,0-1.136.334,1.616,1.616,0,0,0-.734,1.41,1.636,1.636,0,0,0,1.715,1.8,2.008,2.008,0,0,0,1.016-.32,1.721,1.721,0,0,0,.779-1.535A1.591,1.591,0,0,0,19.8-224.677Zm-6.6.535a.7.7,0,0,1,.727.645,12.868,12.868,0,0,1,.008,1.7c-.008.163-.053.231-.178.267l-.048.009c-.059.012-.12.023-.19.035a.383.383,0,0,0-.082.011l-.022,0a.223.223,0,0,0-.03.133.4.4,0,0,0,.022.148h.015l.105,0c.064,0,.137,0,.213,0s.188,0,.277,0l.191,0c.385,0,.653.008.889.014a.118.118,0,0,0,.031-.074.39.39,0,0,0,.007-.208l-.026-.006-.007,0-.2-.045-.039-.008h-.006l-.066-.013a.217.217,0,0,1-.178-.23c0-.155,0-.344,0-.544,0-.11,0-.223,0-.339v-.482a3.434,3.434,0,0,0-.03-.608v-.008a.138.138,0,0,1,.03-.074,1.291,1.291,0,0,1,.757-.289.734.734,0,0,1,.757.645c.036.238.023,1.1.017,1.469,0,.081,0,.139,0,.164-.007.2-.047.26-.193.3l-.052.014a2.033,2.033,0,0,1-.23.052.719.719,0,0,0,0,.282c.226-.014.461-.022.927-.022.182,0,.372.005.564.015.074.007.141.007.185.007a.584.584,0,0,0,.044-.282h-.007a1.581,1.581,0,0,1-.43-.1.233.233,0,0,1-.133-.177c0-.076,0-.165,0-.264,0-.125,0-.261,0-.4.007-.29.007-.6.007-.854,0-.864-.41-1.38-1.1-1.38a2.253,2.253,0,0,0-1.166.535.053.053,0,0,1-.044.022.056.056,0,0,1-.052-.03.961.961,0,0,0-.86-.526,2.081,2.081,0,0,0-1.128.5.11.11,0,0,1-.045.014.058.058,0,0,1-.059-.052c0-.093.007-.183.015-.275l.007-.081a.185.185,0,0,0-.037-.119,5.516,5.516,0,0,1-1.135.289c-.1.015-.141.067-.141.112s.032.08.1.1a1.678,1.678,0,0,1,.446.194.224.224,0,0,1,.082.207v.015c.007.584.007,1.426-.015,1.877-.007.185-.065.267-.215.3l-.013,0a2.653,2.653,0,0,1-.313.063.262.262,0,0,0-.022.112.314.314,0,0,0,.022.17h.006a1.769,1.769,0,0,1,.268.016c.152-.007.336-.015.594-.015.219,0,.416.008.579.015.055,0,.107,0,.154,0l.113,0a.611.611,0,0,0,.022-.282l-.133-.022a1.233,1.233,0,0,1-.14-.023l-.031-.006a.23.23,0,0,1-.207-.229c-.008-.29-.008-.957-.008-1.492v-.437a.24.24,0,0,1,.068-.171A1.357,1.357,0,0,1,13.2-224.142Zm9.929,2.93c.324,0,.546.01.693.017.079,0,.133.006.175.006a.485.485,0,0,0,.037-.334,1.36,1.36,0,0,1-.341-.052c-.128-.029-.17-.087-.178-.252-.014-.393-.014-1.233-.014-1.788a.353.353,0,0,1,.089-.275,1.122,1.122,0,0,1,.689-.252.77.77,0,0,1,.512.17.727.727,0,0,1,.238.468c.029.249.026.7.024,1.129,0,.125,0,.249,0,.37,0,.3-.024.371-.133.409a1.494,1.494,0,0,1-.342.067.434.434,0,0,0,0,.334h.012c.09,0,.184,0,.293-.009.152-.006.322-.014.534-.014.305,0,.54.01.7.017.082,0,.14.006.18.006a.521.521,0,0,0,.022-.319,1.455,1.455,0,0,1-.482-.126.222.222,0,0,1-.059-.119c-.015-.259-.015-1.005-.015-1.5a1.74,1.74,0,0,0-.238-.994,1.017,1.017,0,0,0-.86-.445,1.972,1.972,0,0,0-1.128.535.079.079,0,0,1-.041.023.015.015,0,0,1-.011,0,.056.056,0,0,1-.007-.041c0-.064.009-.178.017-.278l.006-.077a.2.2,0,0,0-.052-.157,4.93,4.93,0,0,1-1.15.3c-.09.019-.153.075-.156.139s.042.1.119.129h.007a1.656,1.656,0,0,1,.437.193.213.213,0,0,1,.068.192v.016c.008.612.006,1.43-.015,1.877-.007.18-.056.251-.193.282l.015-.007-.063.014a2.113,2.113,0,0,1-.249.045.433.433,0,0,0,0,.334h.005l.17-.005C22.618-221.2,22.89-221.212,23.13-221.212Zm18.272-.025c.328,0,.721.011,1.068.02h.006c.255.007.476.013.614.013a3.515,3.515,0,0,0,1.381-.23,1.551,1.551,0,0,0,1.091-1.447,1.354,1.354,0,0,0-1.173-1.269c-.011,0-.017-.009-.017-.014s.006-.011.017-.014a1.162,1.162,0,0,0,.771-1.039c0-1.108-1.175-1.194-1.535-1.194-.262,0-.5,0-.739.007s-.487.007-.76.007c-.419,0-.65-.012-.774-.018l-.094,0a.664.664,0,0,0-.14.285.042.042,0,0,0,.006.033c.077.01.345.046.5.075s.245.111.252.348c.005.184,0,.486,0,.9q0,.386,0,.9c0,.664,0,1.572-.014,1.832-.03.3-.051.363-.252.416a1.44,1.44,0,0,1-.379.059.576.576,0,0,0-.119.31.028.028,0,0,0,.016.024C41.209-221.236,41.3-221.237,41.4-221.237Zm-6.111-5.184c-.038.046-.17.275-.14.327a4.6,4.6,0,0,1,.466.074c.224.044.335.111.357.371.011.24.009.87.008,1.377,0,.152,0,.29,0,.4q0,.215,0,.419c0,.537,0,1-.015,1.406-.022.273-.051.356-.208.416a1.209,1.209,0,0,1-.342.067c-.019,0-.042.03-.066.077a.4.4,0,0,0-.053.257h.008l.83.01c.488.006.945.012,1.263.012a3.467,3.467,0,0,0,2.129-.6,2.487,2.487,0,0,0,1.024-2.137,2.391,2.391,0,0,0-.824-1.9,2.744,2.744,0,0,0-1.81-.579c-.511,0-.831.007-1.114.013-.2,0-.372.008-.571.008-.149,0-.387-.007-.6-.013H35.63C35.48-226.416,35.35-226.42,35.291-226.42Zm-6.6,6.863a1.309,1.309,0,0,1-.89-.275.656.656,0,0,1-.26-.535c0-.23.14-.422.453-.623a.637.637,0,0,1,.319-.082,2.985,2.985,0,0,1,1.04.133.569.569,0,0,1,.43.572C29.786-219.963,29.449-219.557,28.7-219.557Zm4.252-1.937c-.7,0-1.187-.681-1.187-1.655A1.145,1.145,0,0,1,32.2-224.2a.684.684,0,0,1,.4-.112c.711,0,1.188.647,1.188,1.61a1.321,1.321,0,0,1-.327,1.031A.753.753,0,0,1,32.947-221.493Zm-13.089,0c-.7,0-1.187-.681-1.187-1.655a1.145,1.145,0,0,1,.437-1.053.684.684,0,0,1,.4-.112c.71,0,1.187.647,1.187,1.61a1.322,1.322,0,0,1-.326,1.031A.753.753,0,0,1,19.858-221.493Zm23.729-.112a1.731,1.731,0,0,1-.646-.089.559.559,0,0,1-.245-.4c-.018-.261-.016-.863-.015-1.346,0-.123,0-.24,0-.345,0-.026.039-.041.051-.045a1.651,1.651,0,0,1,.227-.009h.2c.981,0,1.521.406,1.521,1.142A1.018,1.018,0,0,1,43.587-221.605Zm-5.774,0a1.522,1.522,0,0,1-.838-.2.461.461,0,0,1-.164-.356c-.014-.112-.014-1.068-.014-1.766,0-.677,0-1.811.014-1.959a.22.22,0,0,1,.075-.119,1.12,1.12,0,0,1,.415-.051,2.6,2.6,0,0,1,1.4.327,2.117,2.117,0,0,1,.972,1.922,2.258,2.258,0,0,1-.668,1.78A1.637,1.637,0,0,1,37.814-221.605Zm-9.26-.927c-.608,0-.823-.559-.823-1.039s.245-.779.638-.779c.507,0,.809.369.809.986a.979.979,0,0,1-.238.683A.576.576,0,0,1,28.554-222.532ZM43.334-224.2c-.219,0-.492-.007-.608-.015-.023,0-.044-.03-.044-.044,0-.527.007-1.313.014-1.617,0-.044.037-.127.075-.134a1.169,1.169,0,0,1,.219-.02.59.59,0,0,1,.093.005c.832,0,1.254.334,1.254.994a.783.783,0,0,1-.393.743A1.585,1.585,0,0,1,43.334-224.2Z" transform="translate(0 250)"/>
</svg>
