<svg xmlns="http://www.w3.org/2000/svg" viewBox="0 0 50 50">
  <defs>
    <style>
      .cls-1 {
        fill: #2c2e31;
      }
    </style>
  </defs>
  <path id="node" class="cls-1" d="M42-48H8a8.009,8.009,0,0,1-8-8V-90a8.009,8.009,0,0,1,8-8H42a8.009,8.009,0,0,1,8,8v34A8.009,8.009,0,0,1,42-48ZM21.2-59.47a.259.259,0,0,0-.129.032,8.706,8.706,0,0,1-1.993.907c-.127.045-.264.1-.272.2s.119.224.392.376l4.411,2.609A2.763,2.763,0,0,0,25-54.977a2.785,2.785,0,0,0,1.391-.371L39.6-62.973a2.8,2.8,0,0,0,1.387-2.411V-80.627A2.787,2.787,0,0,0,39.6-83.036L26.388-90.669A2.8,2.8,0,0,0,25-91.023a2.825,2.825,0,0,0-1.39.354L10.4-83.036a2.786,2.786,0,0,0-1.384,2.408v15.243A2.791,2.791,0,0,0,10.4-62.973l3.464,1.993a5.659,5.659,0,0,0,3.043.826c2.485,0,3.91-1.5,3.91-4.123V-79.327a.382.382,0,0,0-.382-.381H18.761a.378.378,0,0,0-.384.381v15.051A1.7,1.7,0,0,1,16.6-62.571a3.135,3.135,0,0,1-1.39-.37l-3.619-2.091a.4.4,0,0,1-.208-.353V-80.627a.422.422,0,0,1,.209-.362l13.2-7.619a.406.406,0,0,1,.2-.053.4.4,0,0,1,.2.053l13.2,7.618a.423.423,0,0,1,.206.364v15.243a.416.416,0,0,1-.2.357L25.2-57.4a.392.392,0,0,1-.2.051.434.434,0,0,1-.208-.051L21.4-59.414A.41.41,0,0,0,21.2-59.47Zm1.264-11.268a.382.382,0,0,0-.382.381c0,2.226,1.213,4.88,6.992,4.88a8.552,8.552,0,0,0,4.862-1.184,3.839,3.839,0,0,0,1.722-3.344c0-2.855-1.931-3.613-5.988-4.149-4.1-.544-4.518-.823-4.518-1.784,0-.795.352-1.851,3.391-1.851,2.713,0,3.716.587,4.126,2.414a.379.379,0,0,0,.371.3h1.715a.388.388,0,0,0,.279-.121.388.388,0,0,0,.1-.294c-.266-3.151-2.36-4.619-6.592-4.619-3.765,0-6.013,1.59-6.013,4.254,0,2.89,2.238,3.691,5.849,4.048,4.326.423,4.66,1.057,4.66,1.905,0,1.476-1.186,2.106-3.967,2.106-3.495,0-4.265-.881-4.522-2.615a.384.384,0,0,0-.38-.324Z" transform="translate(0 98)"/>
</svg>
