<svg xmlns="http://www.w3.org/2000/svg" viewBox="0 0 50 50">
  <defs>
    <style>
      .cls-1 {
        fill: #2c2e31;
      }
    </style>
  </defs>
  <path id="php" class="cls-1" d="M-183,105h-34a8.009,8.009,0,0,1-8-8V63a8.009,8.009,0,0,1,8-8h34a8.009,8.009,0,0,1,8,8V97A8.009,8.009,0,0,1-183,105Zm-7.675-30.687-3.055,15.493h3.37l.764-4.135h2.939a10.689,10.689,0,0,0,3.154-.382,5.563,5.563,0,0,0,2.225-1.362,8.126,8.126,0,0,0,1.411-1.743,6.772,6.772,0,0,0,.715-2.059c.339-1.884.09-3.285-.764-4.284-.862-1.028-2.247-1.528-4.234-1.528Zm-27.265,0-3.055,15.493h3.37l.764-4.135h2.939a10.693,10.693,0,0,0,3.155-.382,5.564,5.564,0,0,0,2.225-1.362,8.127,8.127,0,0,0,1.411-1.743,6.8,6.8,0,0,0,.715-2.059c.339-1.884.09-3.285-.764-4.284-.862-1.028-2.247-1.528-4.234-1.528h-6.525Zm17,2.624h2.657a2.45,2.45,0,0,1,1.677.432c.276.26.334.805.167,1.578l-1.362,6.841h3.42l1.412-7.223a3.1,3.1,0,0,0-.6-3.2c-.625-.674-1.957-1.03-3.852-1.03h-2.989l.764-4.135h-3.37l-3.038,15.592h3.37l1.743-8.85Zm13.831,6.26h-2.058l1.245-6.526a19.133,19.133,0,0,0,2.391.1c1.341,0,2.129.22,2.557.714.406.406.5,1.233.266,2.391a3.734,3.734,0,0,1-1.361,2.557A5.153,5.153,0,0,1-187.105,83.2Zm-27.214,0h-2.059l1.246-6.526,0,.006a20.417,20.417,0,0,0,2.386.094c1.341,0,2.129.22,2.558.714.405.406.5,1.233.266,2.391a3.739,3.739,0,0,1-1.362,2.557A5.151,5.151,0,0,1-214.32,83.2Z" transform="translate(225 -55)"/>
</svg>
