<svg xmlns="http://www.w3.org/2000/svg" viewBox="0 0 50 49.999">
  <defs>
    <style>
      .cls-1 {
        fill: #2c2e31;
      }
    </style>
  </defs>
  <path id="react" class="cls-1" d="M-33-350H-67a8.009,8.009,0,0,1-8-8v-34a8.009,8.009,0,0,1,8-8h34a8.009,8.009,0,0,1,8,8v34A8.009,8.009,0,0,1-33-350Zm-16.918-10.895h0c.381.367.764.715,1.137,1.036,2.653,2.285,5.247,3.543,7.3,3.543a3.828,3.828,0,0,0,1.967-.493,5.313,5.313,0,0,0,2.243-3.835,17.1,17.1,0,0,0-.209-6.22c-.075-.376-.159-.754-.25-1.124.241-.071.5-.15.78-.244,4.9-1.622,7.947-4.232,7.947-6.811a5.093,5.093,0,0,0-2.16-3.738,17.214,17.214,0,0,0-5.308-2.8c-.431-.149-.884-.293-1.346-.427.076-.313.147-.624.21-.926,1.048-5.058.309-9-1.929-10.287a3.785,3.785,0,0,0-1.912-.47,7.027,7.027,0,0,0-2.4.477,17.075,17.075,0,0,0-5.076,3.2c-.342.3-.7.62-1.049.961-.224-.216-.46-.434-.7-.647-2.826-2.513-5.709-3.955-7.911-3.955a3.863,3.863,0,0,0-1.965.486,5.094,5.094,0,0,0-2.153,3.746,17.157,17.157,0,0,0,.239,6c.088.452.193.92.31,1.393-.531.151-1.055.316-1.558.491-4.564,1.583-7.289,4.012-7.289,6.5a5.309,5.309,0,0,0,2.2,3.858,16.913,16.913,0,0,0,5.487,2.938c.361.124.745.245,1.142.359-.126.509-.236,1.012-.328,1.495-.9,4.744-.16,8.318,1.989,9.562a3.941,3.941,0,0,0,2,.494,7.265,7.265,0,0,0,2.43-.472,16.936,16.936,0,0,0,5.285-3.281c.3-.259.589-.53.873-.8Zm8.446,2.778h0c-1.608,0-3.844-1.131-6.135-3.1-.342-.294-.7-.618-1.058-.965a42.045,42.045,0,0,0,3.523-4.472,41.869,41.869,0,0,0,5.686-.878c.087.35.164.693.229,1.022.912,4.606.031,7.453-1.174,8.149A2.119,2.119,0,0,1-41.472-358.116Zm-17.035-.014a2.218,2.218,0,0,1-1.114-.254c-1.156-.669-1.951-3.3-1.121-7.671.082-.44.185-.908.305-1.392a41.977,41.977,0,0,0,5.655.819,43.288,43.288,0,0,0,3.609,4.458c-.268.259-.537.506-.8.735C-55.39-358.453-57.681-358.131-58.507-358.131Zm8.588-5.334h0c-.845-.912-1.7-1.93-2.527-3.025.8.031,1.624.047,2.455.047s1.691-.019,2.543-.057a38.2,38.2,0,0,1-2.469,3.035Zm-.073-4.774c-1.307,0-2.586-.04-3.8-.118-.725-1.057-1.415-2.152-2.052-3.254S-57.1-373.865-57.64-375c.545-1.138,1.145-2.275,1.783-3.381.652-1.123,1.34-2.216,2.044-3.248,1.266-.1,2.552-.145,3.82-.145,1.288,0,2.576.048,3.827.144.7,1.038,1.384,2.126,2.027,3.236.66,1.139,1.27,2.273,1.813,3.37-.548,1.131-1.156,2.276-1.805,3.4s-1.329,2.222-2.01,3.244C-47.4-368.284-48.693-368.239-49.992-368.239Zm0-10.556a3.757,3.757,0,0,0-3.753,3.753,3.757,3.757,0,0,0,3.753,3.753,3.757,3.757,0,0,0,3.753-3.753A3.757,3.757,0,0,0-49.992-378.795Zm-6.093,10.238h0a37.948,37.948,0,0,1-3.865-.623c.373-1.2.831-2.447,1.361-3.7.374.722.774,1.452,1.191,2.171.425.734.867,1.459,1.315,2.155Zm12.219-.034v0c.444-.7.877-1.423,1.289-2.136.425-.738.835-1.488,1.218-2.228a37.653,37.653,0,0,1,1.411,3.7,38.069,38.069,0,0,1-3.917.668Zm-17.826-1.027h0c-.353-.1-.7-.211-1.038-.326-4.444-1.518-6.467-3.707-6.467-5.1,0-1.336,1.882-3.341,6.086-4.807.456-.159.941-.312,1.441-.453a42.856,42.856,0,0,0,2.048,5.311,43.2,43.2,0,0,0-2.069,5.372Zm23.477-.1h0a41.582,41.582,0,0,0-2.125-5.318,42.483,42.483,0,0,0,2.046-5.247c.446.129.866.262,1.25.393A15.387,15.387,0,0,1-32.3-377.4a3.489,3.489,0,0,1,1.517,2.362c0,1.384-2.1,3.572-6.721,5.107-.248.082-.479.155-.706.222Zm-3.162-7.387v0c-.382-.724-.79-1.462-1.213-2.193s-.851-1.433-1.277-2.1c1.347.17,2.637.4,3.837.67a38.541,38.541,0,0,1-1.345,3.623Zm-17.215,0v0c-.519-1.233-.968-2.456-1.334-3.635,1.2-.267,2.477-.486,3.812-.653-.432.674-.865,1.384-1.286,2.113-.408.706-.808,1.438-1.19,2.175Zm19.043-5.349h0a42.659,42.659,0,0,0-5.621-.889,42.228,42.228,0,0,0-3.542-4.423c.324-.313.649-.609.964-.883a15.259,15.259,0,0,1,4.515-2.87,5.248,5.248,0,0,1,1.778-.369,2.048,2.048,0,0,1,1.025.234c1.2.694,2.049,3.61,1.069,8.373-.059.28-.121.558-.187.827Zm-20.862-.02h0c-.106-.429-.2-.864-.287-1.293a15.246,15.246,0,0,1-.231-5.345,3.48,3.48,0,0,1,1.285-2.5,2.1,2.1,0,0,1,1.06-.241h.007c1.739,0,4.25,1.309,6.716,3.5.218.195.43.39.631.581a42.892,42.892,0,0,0-3.569,4.421,43.445,43.445,0,0,0-5.611.874Zm12.905-1.033h0c-.824-.039-1.663-.058-2.492-.058s-1.651.019-2.459.057c.82-1.08,1.657-2.081,2.488-2.975.824.895,1.653,1.9,2.464,2.975Z" transform="translate(75 400)"/>
</svg>
