<svg xmlns="http://www.w3.org/2000/svg" viewBox="0 0 50 50">
  <defs>
    <style>
      .cls-1 {
        fill: #2c2e31;
      }
    </style>
  </defs>
  <path id="sass" class="cls-1" d="M-108-48h-34a8.009,8.009,0,0,1-8-8V-90a8.009,8.009,0,0,1,8-8h34a8.009,8.009,0,0,1,8,8v34A8.009,8.009,0,0,1-108-48Zm-11.022-38.312a17.526,17.526,0,0,0-5.868,1.045A31.16,31.16,0,0,0-135.147-79.4c-3.448,3.233-3.894,6.047-3.648,7.084.558,2.941,3.592,5.086,6.031,6.81l.314.222.255.176a16.461,16.461,0,0,1,1.542,1.145c-1.558.808-5.295,2.925-6.344,5.181a4.168,4.168,0,0,0-.105,3.7,2.481,2.481,0,0,0,1.374,1.374,5.891,5.891,0,0,0,1.692.211,7.114,7.114,0,0,0,5.868-3.278,7.73,7.73,0,0,0,.846-6.5,7.125,7.125,0,0,1,1.646-.175c.382,0,.795.023,1.262.069a4.95,4.95,0,0,1,3.541,1.692,2.512,2.512,0,0,1,.582,1.8,2.157,2.157,0,0,1-1.057,1.48c-.263.158-.477.314-.423.634a.5.5,0,0,0,.564.372h.123a3.245,3.245,0,0,0,2.273-2.855,4.5,4.5,0,0,0-1.321-3.278,6.37,6.37,0,0,0-4.685-1.8q-.116,0-.232,0a10.323,10.323,0,0,0-3.278.423l-.053-.053a18.88,18.88,0,0,0-1.974-1.732c-.222-.178-.451-.361-.67-.541-2-1.5-4.074-3.056-3.965-5.392.159-2.86,2.987-5.671,8.405-8.353a18.381,18.381,0,0,1,8.078-2.15,8.192,8.192,0,0,1,2.707.405,2.766,2.766,0,0,1,1.639,1.216,3.583,3.583,0,0,1-.476,3.331,11.914,11.914,0,0,1-8.987,5.287,8.1,8.1,0,0,1-.889.051,4.5,4.5,0,0,1-3.232-1.053c-.237-.276-.408-.456-.628-.456a.551.551,0,0,0-.273.084c-.472.236-.145.926-.106,1a4.35,4.35,0,0,0,2.643,2.114,8.165,8.165,0,0,0,2.5.332,16.014,16.014,0,0,0,5.694-1.125c4.419-1.788,7.507-6.556,6.609-10.2a4.886,4.886,0,0,0-2.591-3.066A11.067,11.067,0,0,0-119.022-86.312Zm1.675-6.083a2.4,2.4,0,0,0,.309.4,2.8,2.8,0,0,1,.221.266,6.551,6.551,0,0,1,.318.644l.058.13L-116.4-91a.947.947,0,0,0,.331-.818.521.521,0,0,1-.121-.208.74.74,0,0,0-.055-.124,1.621,1.621,0,0,0-.181-.122,1.241,1.241,0,0,1-.3-.232,3.063,3.063,0,0,0-.522.046c-.049.008-.095.015-.141.021v.044Zm-16.244,36.258a.989.989,0,0,1-.5-.107.708.708,0,0,1-.264-.475,3.987,3.987,0,0,1,1.374-3.014,14.946,14.946,0,0,1,3.595-2.59,5.779,5.779,0,0,1-.158,2.7.741.741,0,0,0-.053.158.743.743,0,0,1-.053.158l0,.008a.745.745,0,0,0-.1.31,4.632,4.632,0,0,1-.951,1.374A4.315,4.315,0,0,1-133.591-56.137Z" transform="translate(150 98)"/>
</svg>
